<?xml version="1.0" standalone="no"?>
<!DOCTYPE svg PUBLIC "-//W3C//DTD SVG 20010904//EN"
 "http://www.w3.org/TR/2001/REC-SVG-20010904/DTD/svg10.dtd">
<svg version="1.0" xmlns="http://www.w3.org/2000/svg"
 width="462.000000pt" height="557.000000pt" viewBox="0 0 462.000000 557.000000"
 preserveAspectRatio="xMidYMid meet">

<g transform="translate(0.000000,557.000000) scale(0.100000,-0.100000)"
fill="#000000" stroke="none">
<path d="M2236 5205 c-3 -8 -1 -15 4 -15 6 0 10 7 10 15 0 8 -2 15 -4 15 -2 0
-6 -7 -10 -15z"/>
<path d="M3668 5053 c7 -3 16 -2 19 1 4 3 -2 6 -13 5 -11 0 -14 -3 -6 -6z"/>
<path d="M2156 4982 c-3 -6 -1 -14 5 -17 14 -9 20 -2 10 14 -6 8 -11 9 -15 3z"/>
<path d="M3686 4965 c-26 -24 -62 -93 -53 -101 2 -2 12 14 22 37 10 22 32 51
48 65 15 13 24 24 19 24 -5 0 -21 -11 -36 -25z"/>
<path d="M2425 4970 c-3 -5 1 -10 10 -10 9 0 13 5 10 10 -3 6 -8 10 -10 10 -2
0 -7 -4 -10 -10z"/>
<path d="M3828 4963 c-10 -2 -18 -9 -18 -14 0 -6 8 -5 20 1 11 6 20 13 20 15
0 3 -1 4 -2 4 -2 -1 -11 -3 -20 -6z"/>
<path d="M897 4939 c7 -7 15 -10 18 -7 3 3 -2 9 -12 12 -14 6 -15 5 -6 -5z"/>
<path d="M775 4920 c3 -5 8 -10 11 -10 2 0 4 5 4 10 0 6 -5 10 -11 10 -5 0 -7
-4 -4 -10z"/>
<path d="M2550 4880 c0 -5 5 -10 11 -10 5 0 7 5 4 10 -3 6 -8 10 -11 10 -2 0
-4 -4 -4 -10z"/>
<path d="M3293 4865 c-3 -9 -3 -18 -1 -21 3 -3 8 4 11 16 6 23 -1 27 -10 5z"/>
<path d="M3616 4835 c-3 -9 -6 -22 -5 -28 0 -7 5 -1 10 12 5 13 8 26 5 28 -2
2 -6 -3 -10 -12z"/>
<path d="M3530 4824 c0 -8 5 -12 10 -9 6 3 10 10 10 16 0 5 -4 9 -10 9 -5 0
-10 -7 -10 -16z"/>
<path d="M3291 4814 c0 -11 3 -14 6 -6 3 7 2 16 -1 19 -3 4 -6 -2 -5 -13z"/>
<path d="M1050 4801 c0 -6 5 -13 10 -16 6 -3 10 1 10 9 0 9 -4 16 -10 16 -5 0
-10 -4 -10 -9z"/>
<path d="M2020 4759 c0 -5 5 -7 10 -4 6 3 10 8 10 11 0 2 -4 4 -10 4 -5 0 -10
-5 -10 -11z"/>
<path d="M2555 4750 c3 -5 8 -10 11 -10 2 0 4 5 4 10 0 6 -5 10 -11 10 -5 0
-7 -4 -4 -10z"/>
<path d="M3320 4750 c0 -5 5 -10 11 -10 5 0 7 5 4 10 -3 6 -8 10 -11 10 -2 0
-4 -4 -4 -10z"/>
<path d="M3586 4745 c-9 -26 -7 -32 5 -12 6 10 9 21 6 23 -2 3 -7 -2 -11 -11z"/>
<path d="M2220 4736 c0 -2 7 -7 16 -10 8 -3 12 -2 9 4 -6 10 -25 14 -25 6z"/>
<path d="M1000 4725 c0 -15 18 -40 24 -34 3 3 -1 14 -9 25 -8 10 -14 15 -15 9z"/>
<path d="M3366 4645 c4 -8 8 -15 10 -15 2 0 4 7 4 15 0 8 -4 15 -10 15 -5 0
-7 -7 -4 -15z"/>
<path d="M1198 4593 c7 -3 16 -2 19 1 4 3 -2 6 -13 5 -11 0 -14 -3 -6 -6z"/>
<path d="M3430 4590 c0 -5 5 -10 10 -10 6 0 10 5 10 10 0 6 -4 10 -10 10 -5 0
-10 -4 -10 -10z"/>
<path d="M1163 4573 c-15 -5 -17 -23 -4 -23 5 0 11 7 15 15 3 8 4 15 3 14 -1
0 -8 -3 -14 -6z"/>
<path d="M2063 4483 c9 -2 23 -2 30 0 6 3 -1 5 -18 5 -16 0 -22 -2 -12 -5z"/>
<path d="M2513 4483 c9 -2 23 -2 30 0 6 3 -1 5 -18 5 -16 0 -22 -2 -12 -5z"/>
<path d="M1833 4473 c9 -2 23 -2 30 0 6 3 -1 5 -18 5 -16 0 -22 -2 -12 -5z"/>
<path d="M2753 4473 c9 -2 23 -2 30 0 6 3 -1 5 -18 5 -16 0 -22 -2 -12 -5z"/>
<path d="M2611 4354 c0 -11 3 -14 6 -6 3 7 2 16 -1 19 -3 4 -6 -2 -5 -13z"/>
<path d="M1603 4335 c-44 -19 -54 -58 -22 -91 21 -23 29 -24 134 -24 98 0 116
3 139 21 33 26 35 71 4 93 -30 21 -208 22 -255 1z m131 -11 c26 -10 19 -43
-11 -55 -35 -13 -122 -6 -133 11 -11 18 -2 38 18 43 27 7 109 8 126 1z"/>
<path d="M2711 4334 c-39 -17 -48 -49 -23 -83 23 -32 51 -38 170 -40 80 -1 95
2 113 20 26 26 22 67 -11 90 -32 22 -205 31 -249 13z m252 -23 c8 -8 9 -16 1
-29 -15 -24 -117 -29 -150 -8 -25 17 -23 42 4 50 28 8 134 -2 145 -13z"/>
<path d="M1221 4331 c-7 -5 -12 -14 -10 -20 2 -6 10 -2 17 9 14 22 13 23 -7
11z"/>
<path d="M2275 4329 c-4 -6 -5 -12 -2 -15 2 -3 7 2 10 11 7 17 1 20 -8 4z"/>
<path d="M2310 4329 c0 -11 25 -22 39 -17 6 1 -1 8 -14 15 -14 6 -25 7 -25 2z"/>
<path d="M3350 4333 c0 -4 5 -15 10 -23 8 -13 10 -13 10 2 0 9 -4 20 -10 23
-5 3 -10 3 -10 -2z"/>
<path d="M2210 4284 c0 -3 21 -14 46 -26 45 -19 48 -19 85 -2 22 9 39 21 39
25 0 4 -38 8 -85 8 -47 0 -85 -2 -85 -5z"/>
<path d="M1244 4260 c0 -11 4 -20 9 -20 5 0 5 -9 2 -20 -9 -28 20 -37 45 -15
30 27 25 51 -11 64 -42 15 -45 14 -45 -9z"/>
<path d="M3288 4267 c-32 -13 -36 -37 -10 -60 25 -23 42 -21 42 2 0 11 5 23
10 26 14 9 12 45 -2 44 -7 -1 -25 -6 -40 -12z"/>
<path d="M1265 4149 c11 -13 21 -26 22 -28 2 -2 3 2 3 10 0 8 -10 20 -22 28
l-23 14 20 -24z"/>
<path d="M3301 4146 c-7 -8 -8 -17 -3 -20 6 -3 12 3 15 14 6 24 4 25 -12 6z"/>
<path d="M854 4072 c-154 -86 -154 -85 -154 -136 0 -42 37 -115 73 -145 24
-19 21 -40 -8 -53 -22 -10 -29 -8 -53 14 -64 61 -135 83 -182 58 -14 -7 -101
-147 -179 -285 -3 -5 8 1 25 15 17 14 29 32 28 40 -2 8 25 60 59 115 73 117
91 128 162 101 26 -10 62 -34 80 -52 19 -19 38 -34 42 -34 4 1 23 13 40 29
l33 27 -36 35 c-67 64 -94 149 -56 181 32 29 204 119 217 114 7 -2 17 6 24 20
6 13 10 24 8 24 -1 0 -56 -31 -123 -68z"/>
<path d="M1074 4130 c21 -4 42 -13 47 -21 13 -20 7 -50 -13 -63 -21 -13 -36 0
-20 16 9 9 8 16 -5 30 -22 24 -31 23 -55 -7 -11 -14 -23 -25 -28 -25 -12 0 -2
29 19 55 15 19 15 19 -3 5 -29 -23 -38 -58 -25 -99 6 -20 16 -40 21 -46 5 -5
4 3 -1 18 -6 16 -11 36 -11 45 0 14 4 13 18 -5 l17 -23 0 37 c0 28 5 38 18 41
14 3 17 -2 15 -25 -2 -23 1 -29 21 -31 27 -4 51 20 51 50 0 30 -36 58 -72 57
-33 -1 -33 -1 6 -9z"/>
<path d="M3477 4122 c-34 -37 -18 -92 25 -92 29 0 30 2 25 30 -5 22 -3 30 7
30 23 0 39 -28 32 -57 l-6 -28 13 24 c18 31 30 12 17 -26 -9 -26 -9 -27 5 -9
8 11 15 36 15 55 0 27 -3 32 -10 21 -8 -13 -14 -10 -34 15 l-25 30 -22 -22
c-19 -19 -20 -24 -9 -38 13 -15 11 -17 -10 -13 -19 2 -26 10 -28 31 -2 16 2
35 9 43 17 21 72 17 97 -6 12 -12 22 -16 22 -11 0 17 -44 41 -76 41 -17 0 -38
-8 -47 -18z"/>
<path d="M3622 4120 c7 -11 17 -19 23 -18 11 3 172 -82 218 -114 46 -33 30
-102 -43 -182 l-41 -44 34 -26 c19 -14 36 -26 39 -26 3 0 23 18 46 40 47 44
109 66 150 52 18 -6 43 -36 83 -103 32 -52 58 -101 58 -110 1 -8 16 -26 34
-39 25 -18 28 -19 16 -4 -9 10 -47 71 -84 134 -37 63 -75 121 -83 128 -27 21
-84 14 -137 -17 -28 -16 -57 -36 -64 -45 -17 -20 -30 -20 -52 0 -17 16 -16 19
20 63 59 73 77 136 49 173 -12 15 -258 158 -272 158 -4 0 -1 -9 6 -20z"/>
<path d="M1895 4100 c-282 -9 -424 -19 -404 -30 8 -5 95 -13 194 -20 99 -6
195 -13 214 -16 l33 -5 -33 -33 c-19 -19 -63 -52 -98 -75 l-64 -41 -294 0
c-259 0 -296 2 -311 16 -9 10 -18 12 -20 6 -1 -5 -13 -8 -25 -6 -16 3 -14 0 8
-10 24 -12 89 -15 340 -16 l310 0 70 47 c39 25 100 72 136 105 l67 58 291 0
292 0 52 -56 c29 -31 84 -78 124 -105 l72 -49 313 0 c254 1 319 4 343 16 22
10 24 13 8 10 -12 -2 -24 1 -26 8 -3 7 -11 5 -24 -6 -18 -16 -48 -18 -311 -18
l-292 0 -57 36 c-58 37 -122 92 -123 107 0 4 26 7 58 7 31 0 125 7 207 15 83
8 161 15 175 15 19 0 21 3 10 9 -45 26 -802 45 -1235 31z"/>
<path d="M1318 4053 c7 -3 16 -2 19 1 4 3 -2 6 -13 5 -11 0 -14 -3 -6 -6z"/>
<path d="M3248 4053 c6 -2 18 -2 25 0 6 3 1 5 -13 5 -14 0 -19 -2 -12 -5z"/>
<path d="M1066 3988 c3 -5 -2 -16 -12 -23 -29 -22 -10 -18 30 6 20 12 36 22
36 22 0 1 -13 2 -30 3 -16 1 -27 -3 -24 -8z"/>
<path d="M3511 3991 l-24 -7 26 -17 c31 -20 59 -23 32 -4 -10 8 -15 19 -11 25
4 7 6 12 4 11 -2 -1 -14 -4 -27 -8z"/>
<path d="M2220 3930 l-65 -59 143 -1 c78 0 142 2 142 4 0 9 -135 116 -145 116
-5 0 -39 -27 -75 -60z m136 4 c24 -20 44 -40 44 -45 0 -5 -45 -9 -100 -9 -55
0 -100 4 -100 9 0 13 82 81 98 81 8 0 34 -16 58 -36z"/>
<path d="M980 3956 c0 -2 8 -10 18 -17 15 -13 16 -12 3 4 -13 16 -21 21 -21
13z"/>
<path d="M3554 3914 c-18 -14 -18 -15 4 -4 12 6 22 13 22 15 0 8 -5 6 -26 -11z"/>
<path d="M1148 3633 c12 -2 30 -2 40 0 9 3 -1 5 -23 4 -22 0 -30 -2 -17 -4z"/>
<path d="M1223 3633 c9 -2 23 -2 30 0 6 3 -1 5 -18 5 -16 0 -22 -2 -12 -5z"/>
<path d="M3333 3633 c20 -2 54 -2 75 0 20 2 3 4 -38 4 -41 0 -58 -2 -37 -4z"/>
<path d="M1025 3120 c0 -283 1 -399 2 -258 2 142 2 374 0 515 -1 142 -2 26 -2
-257z"/>
<path d="M580 3525 c13 -14 26 -25 28 -25 3 0 -5 11 -18 25 -13 14 -26 25 -28
25 -3 0 5 -11 18 -25z"/>
<path d="M3020 3541 c-30 -5 -71 -15 -90 -23 -61 -26 -214 -134 -250 -176 -50
-58 -83 -103 -97 -129 -27 -52 -49 -88 -63 -105 -18 -20 -100 -182 -100 -198
0 -6 -22 -57 -48 -113 -27 -56 -51 -109 -54 -117 -4 -11 -8 -10 -17 8 -10 19
-15 21 -27 11 -8 -6 -14 -18 -14 -25 0 -46 -36 23 -65 126 -4 14 -13 32 -20
40 -6 8 -19 34 -28 58 -10 23 -27 59 -40 80 -12 20 -31 54 -42 75 -11 22 -30
49 -41 60 -12 12 -31 40 -42 62 -11 22 -58 79 -105 126 -78 80 -88 87 -173
117 -99 36 -233 56 -273 40 -40 -15 -71 -49 -71 -78 0 -41 77 -228 108 -263
10 -12 19 -46 23 -90 3 -40 11 -91 18 -115 l12 -42 32 42 c18 23 38 43 45 46
22 7 12 -24 -17 -52 -50 -48 -44 -88 13 -88 14 0 27 -7 30 -14 6 -16 31 -8 69
22 36 29 34 40 -8 56 -36 12 -36 12 -14 28 28 22 22 56 -9 53 -18 -2 -26 5
-38 33 -8 20 -13 39 -10 42 3 3 6 0 6 -6 0 -8 7 -9 26 -2 14 6 36 10 50 10 13
0 24 5 24 11 0 23 -22 49 -41 49 -39 0 -9 17 41 24 39 5 59 2 92 -13 53 -24
63 -17 23 16 -42 35 -113 65 -157 66 -21 1 -38 5 -38 9 0 5 -7 8 -15 8 -8 0
-15 4 -15 10 0 5 -7 6 -17 3 -11 -4 -14 -3 -9 6 5 8 1 14 -13 18 -12 3 -21 10
-21 15 0 5 -10 6 -22 2 l-23 -6 23 24 c12 13 22 28 22 34 0 10 61 54 75 54 5
0 17 7 27 17 11 9 18 11 18 5 0 -7 6 -12 13 -12 7 0 28 -13 47 -30 19 -16 44
-29 55 -30 11 0 35 -9 53 -20 34 -21 44 -37 16 -26 -12 4 -9 -4 10 -28 14 -19
26 -39 26 -45 0 -6 6 -11 13 -11 15 0 84 -77 106 -119 8 -14 17 -28 21 -31 14
-9 50 -89 50 -109 0 -11 11 -46 25 -78 23 -51 24 -59 10 -69 -8 -6 -15 -17
-15 -23 0 -7 -17 1 -37 17 -47 36 -83 55 -90 48 -4 -3 1 -14 10 -24 10 -10 17
-24 17 -30 0 -7 18 -23 39 -37 41 -25 91 -74 91 -88 0 -4 -5 -5 -10 -2 -14 9
-40 -13 -51 -42 -5 -13 -16 -24 -26 -24 -10 -1 -4 -4 12 -8 18 -3 34 -15 40
-29 5 -12 15 -22 21 -22 6 0 17 -7 24 -15 10 -13 10 -19 -5 -35 -14 -15 -15
-20 -4 -20 8 0 22 -7 32 -14 15 -12 17 -18 7 -36 -6 -12 -8 -25 -4 -28 4 -4 9
-1 11 6 3 6 8 12 12 12 10 0 1 -72 -11 -87 -5 -6 -11 -28 -14 -49 -2 -20 -8
-42 -12 -48 -3 -6 -7 -23 -8 -39 -2 -36 -24 -88 -35 -81 -5 2 -11 -8 -15 -23
-18 -83 -62 -202 -84 -230 -30 -40 -43 -43 -30 -7 12 31 12 34 1 34 -5 0 -12
-16 -15 -35 -4 -21 -13 -35 -21 -35 -8 0 -15 3 -15 8 0 9 23 73 31 87 11 19
10 97 -1 90 -5 -3 -10 -14 -10 -25 0 -14 -18 -30 -34 -30 -2 0 0 19 4 42 5 23
6 48 3 55 -3 7 2 13 11 13 19 0 19 1 6 34 -12 32 -32 33 -45 4 -6 -13 -16 -22
-23 -21 -6 2 -9 -3 -6 -11 7 -18 -27 -30 -38 -14 -12 20 -9 50 7 82 8 15 15
33 15 38 0 18 -45 -4 -72 -35 -15 -17 -31 -27 -35 -23 -4 4 -2 10 4 14 6 4 15
20 18 35 5 20 4 27 -8 27 -8 0 -17 -9 -20 -20 -3 -14 -14 -20 -31 -20 -14 0
-26 -4 -26 -10 0 -5 7 -10 15 -10 23 0 18 -14 -15 -50 -16 -18 -30 -36 -30
-42 0 -5 -5 -6 -11 -2 -6 3 -9 17 -6 31 3 15 -1 27 -9 30 -8 3 -14 18 -14 34
0 29 11 35 61 30 9 -1 21 5 28 12 9 12 7 16 -14 21 -22 6 -24 9 -13 26 7 11
22 20 33 20 19 -1 19 -1 2 -14 -16 -12 -16 -14 -1 -20 20 -8 67 3 76 18 5 8
11 7 19 -1 10 -10 9 -14 -4 -19 -9 -3 -17 -10 -17 -15 0 -6 16 3 35 18 42 33
33 47 -23 34 -25 -5 -44 -5 -48 0 -3 5 2 9 10 9 9 0 16 9 16 20 0 11 5 20 10
20 13 0 13 37 -1 46 -6 3 -16 1 -22 -5 -6 -6 -23 -11 -38 -11 -19 0 -28 -6
-32 -21 -3 -11 -15 -23 -26 -26 -11 -3 -19 -9 -16 -13 6 -10 -24 -70 -36 -70
-5 0 -9 8 -9 18 0 10 -5 23 -11 29 -7 7 -9 22 -4 40 5 15 8 31 7 35 -1 5 3 8
9 8 6 0 8 9 4 20 -4 14 -2 20 9 20 10 0 13 -6 10 -15 -4 -8 -2 -15 4 -15 5 0
12 7 16 15 3 8 12 15 20 15 7 0 16 8 20 18 3 9 9 23 12 30 8 17 -12 15 -30 -4
-9 -8 -16 -13 -16 -9 0 3 -10 0 -22 -6 -21 -11 -22 -11 -9 5 8 9 12 19 9 22
-13 13 -56 -59 -67 -112 -11 -50 -10 -64 3 -96 9 -21 16 -57 16 -80 1 -24 7
-54 15 -68 8 -14 14 -46 15 -71 0 -25 9 -72 20 -104 11 -32 20 -80 20 -106 0
-64 6 -77 51 -100 28 -14 39 -26 39 -42 0 -33 10 -42 67 -60 95 -31 115 -25
209 63 42 39 69 76 93 125 18 39 46 96 62 127 16 31 29 61 29 67 0 6 11 28 23
49 13 20 32 61 41 90 23 69 35 70 50 2 3 -14 28 -56 56 -94 27 -38 50 -74 50
-81 0 -51 113 -234 161 -259 13 -7 46 -25 73 -40 57 -30 87 -33 122 -10 13 9
39 20 57 23 28 6 32 12 40 51 9 47 31 80 53 80 22 0 28 21 30 102 1 43 6 84
12 91 6 7 13 57 16 112 8 139 11 173 20 228 13 76 -14 142 -76 191 -27 21 -47
43 -45 50 3 8 -47 12 -177 14 -122 1 -176 -1 -166 -8 8 -5 32 -10 52 -10 21 0
44 -7 54 -17 16 -17 15 -19 -26 -37 l-44 -19 22 -17 c25 -21 29 -35 7 -26 -8
3 -28 1 -44 -5 -35 -12 -32 -39 7 -65 25 -16 25 -18 7 -25 -13 -4 -24 -2 -32
9 -7 8 -16 13 -20 9 -3 -4 1 -15 10 -25 10 -10 17 -32 17 -48 0 -17 5 -35 12
-42 6 -6 9 -15 5 -18 -3 -4 -13 0 -21 9 -8 8 -12 17 -9 21 4 3 -1 6 -10 6 -9
0 -17 7 -17 17 0 23 -8 13 -13 -18 -3 -14 2 -50 10 -80 22 -83 24 -97 14 -104
-9 -5 -69 109 -85 163 -4 12 -11 22 -15 22 -4 0 -13 11 -19 25 -14 31 -15 46
-2 25 5 -8 10 -10 10 -5 0 6 -9 18 -20 28 -11 9 -20 25 -20 36 0 10 -7 24 -15
31 -17 14 -20 50 -5 50 6 0 8 10 4 24 -4 16 -1 27 9 33 8 4 16 17 18 28 3 14
16 22 49 29 25 5 40 11 33 13 -7 2 -9 11 -6 19 3 9 20 14 49 14 24 0 44 5 44
10 0 6 -10 10 -22 10 -13 1 -41 9 -62 19 -38 18 -38 19 -18 30 12 7 22 9 22 6
0 -3 14 1 30 10 33 17 36 25 18 43 -9 9 -6 12 14 12 14 0 42 11 62 25 20 14
42 25 49 25 7 0 19 5 27 10 9 6 -5 7 -43 3 -67 -7 -72 2 -27 50 62 67 139 172
129 176 -6 2 -3 12 8 23 18 20 17 21 -2 10 -21 -12 -66 -57 -80 -82 -4 -8 8 1
28 19 47 45 47 32 0 -25 -24 -30 -39 -41 -44 -33 -8 14 -29 -19 -22 -37 2 -6
-13 -19 -34 -29 -21 -10 -60 -40 -86 -67 -27 -27 -51 -47 -54 -44 -8 7 31 58
70 92 42 36 68 84 60 113 -3 11 0 28 7 36 7 9 10 18 7 22 -4 3 -2 12 4 19 6 8
9 21 5 29 -4 11 1 15 17 15 18 0 19 2 7 10 -13 8 -12 10 4 10 12 0 16 5 12 15
-3 8 -1 15 4 15 5 0 39 23 75 50 36 28 69 50 71 50 3 0 18 9 33 19 15 11 51
25 80 33 35 8 59 21 69 36 15 23 14 23 -24 21 -21 -1 -46 -8 -54 -15 -27 -22
-113 -46 -120 -34 -5 7 -18 1 -38 -19 -17 -17 -40 -31 -51 -31 -33 0 -25 15
23 39 24 13 49 34 56 47 7 13 16 21 21 19 18 -12 40 8 35 30 -4 14 0 28 9 35
21 18 29 6 14 -19 -17 -26 -5 -37 23 -22 13 6 15 9 6 7 -10 -3 -18 -1 -18 4 0
6 6 10 13 10 7 0 18 9 25 20 12 20 52 28 52 10 0 -5 -4 -10 -10 -10 -5 0 -10
-4 -10 -10 0 -15 30 -12 36 4 3 8 13 12 25 9 11 -3 19 0 19 7 0 10 3 10 15 0
12 -10 15 -9 15 4 0 12 7 16 23 14 12 -2 21 -7 19 -12 -2 -5 10 -15 27 -24 33
-15 40 -42 18 -61 -8 -6 -12 -23 -9 -41 3 -19 0 -30 -8 -30 -7 0 -10 -6 -7
-14 4 -9 -5 -21 -19 -31 -24 -16 -25 -17 -7 -30 13 -10 18 -27 18 -68 0 -30
-3 -53 -7 -51 -3 2 -6 -12 -5 -31 0 -19 -6 -42 -14 -52 -16 -20 -16 -48 2
-112 9 -34 10 -46 1 -49 -7 -2 -9 -8 -6 -14 8 -13 -17 -127 -31 -137 -17 -14
-232 -24 -240 -11 -3 5 -15 10 -26 10 -33 0 -16 -24 22 -31 19 -4 69 -14 112
-24 43 -9 85 -14 93 -11 20 8 17 -4 -8 -31 -30 -32 -15 -40 21 -12 51 41 74
126 91 329 23 268 26 283 86 396 65 122 73 204 26 247 -22 20 -108 28 -182 18z
m5 -91 c3 -5 1 -10 -4 -10 -6 0 -11 5 -11 10 0 6 2 10 4 10 3 0 8 -4 11 -10z
m-229 -97 c-10 -10 -19 5 -10 18 6 11 8 11 12 0 2 -7 1 -15 -2 -18z m-34 -15
c-7 -7 -12 -8 -12 -2 0 6 3 14 7 17 3 4 9 5 12 2 2 -3 -1 -11 -7 -17z m-61
-28 c-13 -11 -28 -20 -35 -20 -6 1 0 10 13 20 13 11 28 20 35 20 6 -1 0 -10
-13 -20z m39 -6 c-8 -8 -23 -20 -34 -26 -19 -10 -18 -8 3 16 26 27 53 37 31
10z m-112 -143 c-13 -21 -43 -30 -36 -10 2 6 7 9 11 7 5 -2 13 5 19 15 5 10
12 16 15 14 2 -3 -2 -14 -9 -26z m-1095 -92 c-4 -16 -8 -17 -14 -7 -13 19 -11
28 5 28 9 0 12 -7 9 -21z m7 -49 c0 -5 -5 -10 -11 -10 -5 0 -7 5 -4 10 3 6 8
10 11 10 2 0 4 -4 4 -10z m80 -40 c0 -5 -7 -7 -15 -4 -8 4 -15 8 -15 10 0 2 7
4 15 4 8 0 15 -4 15 -10z m940 -70 c0 -5 -5 -10 -11 -10 -5 0 -7 5 -4 10 3 6
8 10 11 10 2 0 4 -4 4 -10z m15 -170 c-27 -12 -43 -12 -25 0 8 5 22 9 30 9 10
0 8 -3 -5 -9z m110 -260 c3 -5 1 -10 -4 -10 -6 0 -11 5 -11 10 0 6 2 10 4 10
3 0 8 -4 11 -10z m69 -41 c-30 -12 -34 -10 -34 16 0 25 0 25 26 8 24 -15 25
-17 8 -24z m51 -9 c3 -5 2 -10 -4 -10 -5 0 -13 5 -16 10 -3 6 -2 10 4 10 5 0
13 -4 16 -10z m175 -134 c0 -6 -4 -17 -9 -24 -6 -10 -14 -4 -30 23 -29 50 -26
60 9 33 17 -12 30 -27 30 -32z m-302 -15 c6 -18 -33 -13 -56 8 -12 10 -19 21
-16 24 8 8 68 -19 72 -32z m-802 -301 c-1 -17 -7 -30 -13 -30 -7 0 -14 -12
-14 -27 -2 -54 -8 -86 -16 -92 -5 -3 -8 -13 -8 -21 0 -8 -10 -35 -22 -60 -13
-25 -23 -54 -23 -65 0 -12 -3 -16 -10 -9 -10 10 22 145 44 178 7 12 17 37 21
56 6 32 34 100 40 100 1 0 2 -13 1 -30z m64 -216 c0 -8 -4 -12 -10 -9 -5 3
-10 10 -10 16 0 5 5 9 10 9 6 0 10 -7 10 -16z m-58 -116 c-10 -10 -10 -8 -2
37 1 6 4 2 7 -9 3 -10 0 -23 -5 -28z"/>
<path d="M4085 3536 c-52 -22 -59 -39 -34 -80 25 -43 29 -44 29 -11 0 16 -6
25 -15 25 -31 0 -16 41 20 56 43 18 49 18 41 -1 -3 -10 1 -15 13 -15 20 0 55
-33 45 -43 -4 -3 -19 -4 -34 -1 -20 4 -29 1 -34 -11 -9 -25 21 -55 54 -55 63
0 82 80 29 124 -34 29 -68 32 -114 12z m109 -17 c45 -35 29 -109 -23 -109 -31
0 -57 23 -46 40 5 8 11 7 21 -1 12 -10 19 -8 36 9 l21 20 -27 25 c-43 40 -29
53 18 16z"/>
<path d="M412 3524 c-12 -8 -27 -25 -33 -37 -8 -15 -2 -11 18 11 17 17 37 32
44 32 7 0 4 -9 -9 -23 -26 -28 -28 -46 -5 -62 14 -11 19 -10 29 4 12 15 13 15
19 -2 9 -23 -11 -47 -40 -47 -22 0 -48 22 -58 50 -5 13 -6 13 -6 -1 -1 -22 41
-59 66 -59 27 0 53 25 53 51 0 19 -8 23 -47 19 -32 -2 -30 28 2 36 14 3 32 3
40 0 9 -3 13 -2 10 4 -3 6 -13 10 -21 10 -8 0 -14 5 -14 10 0 13 19 13 59 -1
34 -12 40 -33 15 -47 -10 -6 -14 -14 -9 -22 6 -9 13 -7 26 11 25 32 24 36 -13
59 -39 24 -95 26 -126 4z"/>
<path d="M331 3464 c0 -11 3 -14 6 -6 3 7 2 16 -1 19 -3 4 -6 -2 -5 -13z"/>
<path d="M623 3435 c-7 -7 -8 -17 -2 -26 5 -8 9 -39 9 -70 l0 -56 36 -6 c47
-8 131 -63 149 -98 12 -23 15 -82 15 -307 l0 -279 -24 -22 c-14 -13 -38 -24
-58 -24 l-33 -2 -5 76 c-3 43 -12 84 -20 94 -24 28 -67 45 -119 45 -39 0 -56
-6 -80 -26 l-31 -26 0 -161 c0 -142 2 -159 14 -141 9 12 11 23 5 29 -10 10
-13 244 -3 270 16 40 97 56 157 32 55 -24 65 -46 66 -158 l1 -56 47 8 c26 5
57 19 70 31 l23 21 0 296 0 295 -47 45 c-31 30 -65 51 -98 61 l-50 16 -5 76
c-4 58 -8 73 -17 63z"/>
<path d="M3958 3369 l-3 -70 -50 -17 c-28 -10 -67 -30 -87 -45 -66 -51 -68
-63 -68 -366 l0 -271 28 -31 c21 -24 38 -32 75 -36 l47 -6 0 74 c0 82 12 109
60 134 49 25 107 20 141 -14 l29 -29 0 -130 c0 -72 -4 -132 -9 -134 -5 -1 -3
-14 4 -28 13 -22 14 -7 15 138 l0 164 -29 29 c-25 24 -37 29 -81 29 -98 0
-140 -41 -140 -136 0 -76 -13 -91 -65 -74 -19 6 -40 20 -45 30 -15 29 -13 569
3 600 17 34 101 89 148 96 l39 7 0 56 c0 31 3 66 6 79 4 13 2 22 -4 22 -7 0
-12 -29 -14 -71z"/>
<path d="M1570 3309 c0 -5 5 -7 10 -4 6 3 10 8 10 11 0 2 -4 4 -10 4 -5 0 -10
-5 -10 -11z"/>
<path d="M2787 3131 c-3 -14 -1 -18 9 -14 16 6 18 19 5 27 -5 3 -11 -3 -14
-13z"/>
<path d="M1648 2993 c7 -3 16 -2 19 1 4 3 -2 6 -13 5 -11 0 -14 -3 -6 -6z"/>
<path d="M1510 2811 c0 -22 4 -43 10 -46 5 -3 8 -20 6 -38 -5 -38 9 -108 31
-154 20 -42 87 -83 136 -83 21 0 37 -3 37 -7 0 -4 -12 -20 -27 -36 -28 -30
-20 -29 27 3 31 22 82 38 140 45 25 3 61 9 80 14 l35 9 -32 1 c-18 1 -63 -4
-100 -11 -43 -7 -90 -8 -128 -3 l-60 8 58 15 c31 9 57 19 57 23 0 4 -32 5 -70
2 -62 -5 -70 -3 -64 11 4 11 1 16 -10 16 -9 0 -16 5 -16 10 0 6 -11 10 -24 10
-13 0 -28 6 -34 13 -16 19 -18 83 -3 101 18 22 26 13 10 -12 -19 -30 -6 -47
37 -50 20 -2 40 -5 44 -7 14 -9 80 16 80 30 0 9 9 15 21 15 12 0 19 5 16 13
-3 8 -22 11 -56 10 -28 -1 -51 0 -51 2 0 2 11 16 25 31 13 14 22 30 19 35 -9
15 -24 10 -24 -8 0 -15 -1 -15 -18 0 -10 10 -22 14 -26 10 -3 -4 -22 -7 -41
-8 -18 0 -37 -4 -41 -8 -12 -11 -25 -8 -23 6 1 6 1 27 0 45 -2 46 -21 40 -21
-7z"/>
<path d="M2990 2721 c-7 -15 -7 -21 0 -21 12 0 25 28 17 36 -3 3 -10 -4 -17
-15z"/>
<path d="M2855 2681 c-21 -5 -25 -8 -14 -13 8 -3 26 0 40 8 26 14 21 15 -26 5z"/>
<path d="M2490 2640 c-20 -12 -5 -24 16 -12 9 5 12 12 7 15 -5 3 -15 2 -23 -3z"/>
<path d="M3543 2480 c0 -36 2 -50 4 -32 2 17 2 47 0 65 -2 17 -4 3 -4 -33z"/>
<path d="M1995 2520 c4 -6 11 -8 16 -5 14 9 11 15 -7 15 -8 0 -12 -5 -9 -10z"/>
<path d="M698 2468 c-3 -24 -1 -47 3 -52 5 -6 9 13 9 42 0 63 -6 68 -12 10z"/>
<path d="M545 2420 c-24 -9 -52 -40 -37 -40 5 0 12 7 16 15 3 8 12 15 21 15
17 0 20 -16 5 -25 -19 -12 -10 -35 23 -55 39 -24 84 -26 115 -4 29 20 29 39 0
20 -22 -14 -53 -20 -90 -17 -18 1 -48 27 -48 42 0 15 32 10 52 -8 14 -13 22
-14 40 -5 21 10 21 11 3 9 -14 -1 -21 5 -23 21 -4 27 22 30 37 5 6 -10 11 -13
11 -6 1 33 -76 53 -125 33z m57 -15 c0 -5 -5 -11 -11 -13 -6 -2 -11 4 -11 13
0 9 5 15 11 13 6 -2 11 -8 11 -13z"/>
<path d="M1724 2416 c-10 -8 -17 -16 -14 -19 8 -8 50 11 50 23 0 14 -13 13
-36 -4z"/>
<path d="M3890 2419 c0 -5 5 -7 10 -4 6 3 10 8 10 11 0 2 -4 4 -10 4 -5 0 -10
-5 -10 -11z"/>
<path d="M3970 2420 c-10 -6 -11 -10 -2 -10 6 0 12 -12 12 -26 0 -19 -4 -25
-17 -22 -11 2 -18 12 -17 25 0 12 -3 20 -8 17 -4 -3 -8 -14 -8 -24 0 -28 45
-37 70 -15 11 10 26 15 35 11 13 -4 15 -1 10 14 -8 24 2 26 27 3 17 -15 18
-15 13 -1 -11 29 -85 47 -115 28z m47 -17 c2 -6 -3 -13 -12 -16 -10 -5 -15 0
-15 14 0 21 21 22 27 2z"/>
<path d="M501 2357 c-1 -30 29 -65 65 -77 20 -7 38 -10 40 -7 3 3 -8 8 -24 12
-33 7 -56 28 -71 65 -7 18 -10 20 -10 7z"/>
<path d="M4080 2337 c-8 -18 -28 -38 -43 -45 -16 -8 -26 -16 -24 -19 12 -11
65 29 77 57 17 41 9 46 -10 7z"/>
<path d="M3544 2270 c0 -52 1 -74 3 -47 2 26 2 68 0 95 -2 26 -3 4 -3 -48z"/>
<path d="M4036 2343 c-6 -14 -5 -15 5 -6 7 7 10 15 7 18 -3 3 -9 -2 -12 -12z"/>
<path d="M3909 2330 c14 -13 37 -20 60 -19 l36 1 -38 8 c-21 4 -43 12 -50 19
-6 6 -16 11 -21 11 -6 -1 0 -10 13 -20z"/>
<path d="M1813 2323 c-20 -7 -15 -23 7 -23 13 0 18 -5 14 -15 -8 -19 7 -19 32
0 16 12 17 14 3 15 -9 0 -19 7 -23 15 -6 15 -12 17 -33 8z"/>
<path d="M1941 2286 c-16 -19 -11 -29 8 -17 7 5 12 14 9 21 -3 9 -8 7 -17 -4z"/>
<path d="M686 2255 c-3 -9 0 -15 9 -15 26 0 20 -78 -7 -101 l-23 -18 33 -1 32
0 0 75 c0 67 -2 75 -19 75 -10 0 -21 -7 -25 -15z"/>
<path d="M3870 2195 c0 -70 1 -75 22 -75 20 0 20 1 5 18 -21 23 -23 90 -3 98
27 10 27 34 1 34 -24 0 -25 -2 -25 -75z"/>
<path d="M598 2123 c6 -2 18 -2 25 0 6 3 1 5 -13 5 -14 0 -19 -2 -12 -5z"/>
<path d="M3542 2100 c0 -19 2 -27 5 -17 2 9 2 25 0 35 -3 9 -5 1 -5 -18z"/>
<path d="M544 2108 c-23 -11 -44 -48 -44 -78 0 -48 101 -79 146 -45 15 12 16
14 2 9 -20 -7 -53 21 -43 36 9 15 31 12 49 -6 9 -8 16 -11 16 -4 0 6 -11 16
-25 22 -21 9 -28 8 -45 -7 -22 -20 -53 -14 -44 10 4 8 17 18 31 21 13 4 22 9
19 11 -9 9 -46 -9 -56 -28 -8 -13 -7 -25 0 -39 8 -16 8 -20 -4 -20 -21 0 -39
37 -32 66 4 14 21 33 39 44 33 21 27 26 -9 8z m56 -118 c0 -5 -4 -10 -10 -10
-5 0 -10 5 -10 10 0 6 5 10 10 10 6 0 10 -4 10 -10z"/>
<path d="M4007 2107 c18 -7 42 -20 53 -29 11 -10 20 -13 20 -8 0 15 -61 50
-85 49 -14 0 -10 -4 12 -12z"/>
<path d="M4018 2054 c27 -19 29 -44 2 -44 -11 0 -20 5 -20 11 0 8 -4 8 -14 -1
-8 -6 -12 -18 -9 -26 7 -18 -21 -19 -36 0 -12 14 -2 27 29 39 12 4 12 6 -2 6
-22 1 -49 -26 -42 -43 5 -13 46 -36 64 -36 4 0 6 9 3 20 -3 12 0 20 7 20 6 0
14 -9 17 -20 6 -24 5 -23 38 -8 26 12 41 46 32 70 -3 7 -6 2 -6 -12 -1 -29
-18 -50 -40 -50 -12 0 -12 3 -3 12 7 7 12 19 12 28 0 18 -30 50 -46 50 -4 0 2
-7 14 -16z"/>
<path d="M1024 1870 c0 -96 2 -136 3 -87 2 48 2 126 0 175 -1 48 -3 8 -3 -88z"/>
<path d="M460 1841 c0 -154 2 -171 20 -194 42 -53 155 -45 205 14 21 26 25 41
25 95 0 70 9 81 55 70 48 -12 65 -40 65 -108 0 -110 34 -268 80 -376 21 -49
21 -53 6 -77 -30 -45 -98 -53 -179 -20 -14 6 -7 -14 29 -81 76 -142 92 -164
132 -181 42 -18 97 -6 127 27 28 31 46 24 98 -40 47 -58 57 -83 36 -96 -6 -3
-24 -27 -40 -52 -23 -36 -29 -58 -29 -99 l0 -53 103 -68 c56 -38 108 -72 115
-76 10 -6 12 3 7 41 -9 69 5 98 67 130 115 60 282 21 364 -85 21 -26 34 -39
30 -28 -5 14 -3 17 11 12 15 -6 15 -4 -2 14 -10 11 -22 20 -27 20 -6 0 -27 15
-48 33 -21 18 -69 43 -105 56 -79 28 -143 25 -224 -10 -59 -25 -81 -57 -81
-119 0 -22 -3 -40 -7 -39 -5 0 -48 28 -98 63 -75 51 -91 66 -93 91 -6 46 16
103 55 146 42 47 44 43 -41 146 l-51 62 -25 -23 c-51 -48 -115 -60 -157 -31
-20 14 -123 184 -123 202 0 5 26 8 58 9 65 0 109 22 118 60 4 14 -6 52 -25 99
-38 94 -60 199 -68 322 -6 88 -8 95 -35 118 -19 16 -42 25 -64 25 l-34 0 0 77
c0 42 -3 74 -6 70 -4 -3 -6 -65 -6 -136 1 -72 -4 -144 -10 -161 -21 -63 -142
-88 -193 -40 -24 23 -25 27 -25 167 0 79 2 143 4 143 2 0 20 -7 39 -15 40 -17
91 -18 122 -5 16 8 13 9 -15 8 -79 -3 -102 2 -131 31 l-29 29 0 -167z"/>
<path d="M4127 1992 c-5 -12 -20 -29 -35 -38 -16 -9 -18 -13 -7 -9 11 4 25 7
30 8 6 1 11 -50 13 -132 3 -153 -4 -173 -66 -192 -28 -8 -49 -8 -78 0 -64 17
-78 40 -83 132 l-3 79 -34 0 c-84 0 -114 -41 -114 -157 0 -89 -36 -252 -74
-334 -27 -60 -24 -82 18 -114 21 -15 42 -20 87 -20 32 1 59 -2 59 -5 -1 -21
-112 -197 -131 -207 -45 -24 -92 -16 -136 22 l-41 35 -66 -82 -67 -81 30 -31
c37 -39 70 -111 71 -153 0 -30 -8 -38 -90 -93 -50 -33 -96 -63 -103 -65 -8 -4
-12 10 -13 45 -1 64 -26 91 -109 121 -47 16 -73 20 -118 15 -66 -7 -181 -57
-200 -87 -6 -10 -19 -19 -29 -19 -22 0 -31 -16 -20 -35 7 -13 14 -8 42 26 21
27 55 52 99 73 88 41 170 43 253 4 64 -30 72 -45 66 -128 -1 -27 -2 -50 0 -50
1 0 54 34 117 77 l115 76 0 41 c0 48 -25 107 -64 154 l-28 32 57 70 57 70 32
-25 c56 -42 88 -49 136 -28 38 16 48 30 110 141 44 80 63 121 52 117 -74 -30
-122 -28 -167 6 -31 25 -31 37 0 116 38 93 63 205 70 316 9 116 21 139 81 141
l39 1 5 -78 c5 -73 7 -81 35 -103 37 -29 102 -40 150 -24 62 20 66 36 63 226
-2 103 -6 160 -11 146z"/>
<path d="M3890 1964 c0 -8 5 -12 10 -9 6 4 8 11 5 16 -9 14 -15 11 -15 -7z"/>
<path d="M4013 1933 c9 -2 25 -2 35 0 9 3 1 5 -18 5 -19 0 -27 -2 -17 -5z"/>
<path d="M1528 1378 c15 -15 16 -174 2 -183 -5 -3 -10 -10 -10 -16 0 -12 131
-12 164 1 77 29 77 163 0 198 -36 17 -67 15 -36 -1 76 -43 73 -174 -5 -193
-49 -13 -58 4 -61 110 l-3 96 -31 0 c-25 0 -29 -3 -20 -12z"/>
<path d="M2150 1388 c0 -2 -2 -49 -3 -105 -2 -106 0 -113 41 -113 12 0 13 3 4
12 -8 8 -12 47 -12 110 0 80 -3 98 -15 98 -8 0 -15 -1 -15 -2z"/>
<path d="M2553 1372 c10 -10 17 -30 17 -44 0 -27 -43 -89 -87 -125 -22 -18
-24 -23 -11 -28 30 -12 113 -1 116 15 2 12 -7 14 -45 11 l-48 -3 47 43 c54 52
68 88 44 124 -9 14 -24 25 -33 25 -15 0 -15 -1 0 -18z"/>
<path d="M2651 1365 c-41 -53 -35 -129 14 -175 29 -27 48 -22 75 22 33 55 19
155 -25 171 -13 6 -13 3 1 -19 33 -50 14 -184 -27 -184 -15 0 -39 64 -39 105
0 20 7 51 14 70 18 42 14 44 -13 10z"/>
<path d="M2835 1380 c-11 -5 -14 -9 -7 -9 17 -1 17 -172 0 -189 -9 -9 -2 -12
32 -12 41 0 42 1 27 18 -13 15 -17 39 -17 110 0 51 -3 92 -7 91 -5 0 -17 -4
-28 -9z"/>
<path d="M3063 1373 c9 -9 19 -14 23 -11 10 10 -6 28 -24 28 -15 0 -15 -1 1
-17z"/>
<path d="M2482 1368 c-21 -21 -7 -68 21 -68 4 0 1 10 -7 22 -11 15 -12 26 -5
40 11 21 8 23 -9 6z"/>
<path d="M2982 1353 c-52 -75 -27 -183 43 -183 25 0 65 46 65 75 0 26 -31 65
-52 65 -7 0 -5 -5 5 -11 33 -20 15 -119 -23 -119 -5 0 -16 8 -25 17 -14 14
-16 28 -10 77 3 34 13 71 21 84 21 32 -1 27 -24 -5z"/>
<path d="M1175 1320 c10 -11 20 -20 23 -20 3 0 -3 9 -13 20 -10 11 -20 20 -23
20 -3 0 3 -9 13 -20z"/>
<path d="M3389 1323 c-13 -16 -12 -17 4 -4 9 7 17 15 17 17 0 8 -8 3 -21 -13z"/>
<path d="M1866 1285 c5 -12 -2 -15 -31 -15 -21 0 -34 4 -30 10 3 6 2 10 -4 10
-13 0 -31 -33 -31 -55 0 -26 46 -65 77 -65 l28 1 -31 13 c-30 13 -44 33 -44
62 0 10 13 14 43 14 50 0 62 7 46 27 -15 18 -30 17 -23 -2z"/>
<path d="M1939 1284 c-12 -14 -8 -21 26 -50 32 -27 37 -36 27 -46 -10 -10 -16
-10 -33 0 -22 14 -35 10 -24 -7 9 -15 47 -14 69 2 25 18 17 47 -19 67 -16 10
-29 25 -29 34 2 20 0 20 -17 0z"/>
<path d="M1980 1296 c0 -2 7 -6 15 -10 8 -3 15 -1 15 4 0 6 -7 10 -15 10 -8 0
-15 -2 -15 -4z"/>
<path d="M2055 1271 c-25 -49 8 -102 62 -100 14 0 14 2 -5 9 -12 5 -28 21 -34
36 -10 21 -9 31 4 55 14 24 15 29 3 29 -8 0 -21 -13 -30 -29z"/>
<path d="M2308 1294 c24 -11 11 -24 -24 -24 -21 0 -33 4 -29 10 3 6 2 10 -2
10 -17 0 -33 -25 -33 -51 0 -31 40 -69 74 -69 18 0 16 3 -11 20 -23 14 -33 27
-33 45 0 23 4 25 46 25 38 0 45 3 42 17 -2 10 -12 19 -23 20 -11 2 -14 0 -7
-3z"/>
<path d="M1245 1240 c10 -11 20 -20 23 -20 3 0 -3 9 -13 20 -10 11 -20 20 -23
20 -3 0 3 -9 13 -20z"/>
<path d="M3299 1223 l-24 -28 28 24 c25 23 32 31 24 31 -2 0 -14 -12 -28 -27z"/>
<path d="M3219 1153 c-13 -16 -12 -17 4 -4 9 7 17 15 17 17 0 8 -8 3 -21 -13z"/>
<path d="M2858 973 c7 -3 16 -2 19 1 4 3 -2 6 -13 5 -11 0 -14 -3 -6 -6z"/>
<path d="M1758 953 c7 -3 16 -2 19 1 4 3 -2 6 -13 5 -11 0 -14 -3 -6 -6z"/>
<path d="M2010 876 c0 -2 7 -7 16 -10 8 -3 12 -2 9 4 -6 10 -25 14 -25 6z"/>
<path d="M2530 870 c-8 -5 -10 -10 -5 -10 6 0 17 5 25 10 8 5 11 10 5 10 -5 0
-17 -5 -25 -10z"/>
<path d="M1765 509 c-30 -6 -25 -12 23 -22 23 -5 27 0 14 18 -4 6 -20 8 -37 4z"/>
<path d="M2118 443 c3 -66 0 -85 -20 -123 -38 -74 -55 -77 -210 -38 -73 19
-132 38 -131 44 1 6 -19 10 -47 10 -43 -1 -46 -2 -27 -12 12 -6 93 -28 181
-49 151 -36 160 -37 192 -22 18 9 40 29 48 45 16 32 35 132 33 177 l-2 30 164
0 163 0 2 -71 c3 -87 36 -162 79 -182 31 -15 49 -12 274 44 78 19 133 39 133
47 0 1 -22 0 -49 -1 -27 -2 -60 1 -72 8 -23 11 -23 11 1 -9 30 -24 37 -21
-128 -60 -130 -32 -151 -31 -186 7 -26 30 -47 127 -40 185 l7 47 -184 0 -184
0 3 -77z"/>
<path d="M2790 496 c0 -9 7 -12 20 -9 16 4 20 0 20 -23 0 -34 5 -29 13 14 6
30 5 32 -23 32 -19 0 -30 -5 -30 -14z"/>
<path d="M2888 489 c-24 -13 -23 -27 5 -49 19 -16 20 -19 5 -25 -9 -4 -26 -2
-37 4 -17 10 -20 9 -15 -4 9 -23 -13 -18 -30 7 -9 12 -16 18 -16 13 1 -15 23
-41 47 -53 38 -21 80 -15 102 14 26 33 27 58 1 84 -22 22 -37 24 -62 9z m54
-16 c24 -21 23 -48 -2 -73 -20 -20 -87 -29 -75 -10 3 6 14 10 25 10 28 0 35
31 10 50 -16 12 -18 18 -8 28 16 16 28 15 50 -5z"/>
<path d="M1640 471 c-5 -11 -10 -29 -10 -40 0 -23 33 -61 53 -61 6 0 3 6 -8
12 -39 22 -46 59 -18 90 9 10 11 18 5 18 -6 0 -16 -9 -22 -19z"/>
<path d="M1680 486 c0 -2 9 -6 20 -9 11 -3 18 -1 14 4 -5 9 -34 13 -34 5z"/>
<path d="M1841 464 c0 -11 3 -14 6 -6 3 7 2 16 -1 19 -3 4 -6 -2 -5 -13z"/>
<path d="M1698 453 c-11 -3 -18 -14 -18 -29 0 -19 5 -24 24 -24 28 0 43 -16
24 -23 -8 -3 -6 -6 5 -6 18 -1 67 44 67 62 0 5 -9 -1 -19 -14 -11 -13 -23 -21
-27 -16 -4 4 -2 13 4 19 7 7 12 16 12 22 0 5 -9 0 -20 -12 -21 -22 -41 -28
-53 -15 -4 3 0 15 10 25 9 10 14 17 12 17 -2 -1 -12 -3 -21 -6z"/>
</g>
</svg>
